<svg width="24" height="24" viewBox="0 0 24 24" fill="none" xmlns="http://www.w3.org/2000/svg">
<mask id="path-1-outside-1_165_30" maskUnits="userSpaceOnUse" x="2" y="4.5" width="20" height="18" fill="black">
<rect fill="white" x="2" y="4.5" width="20" height="18"/>
<path d="M9.2093 20.74C8.06263 20.74 7.04263 20.5 6.1493 20.02C5.2693 19.54 4.57596 18.88 4.0693 18.04C3.56263 17.2 3.3093 16.2467 3.3093 15.18V5.6H6.0293V15.04C6.0293 15.6533 6.16263 16.2067 6.4293 16.7C6.7093 17.1933 7.0893 17.58 7.5693 17.86C8.0493 18.1267 8.59596 18.26 9.2093 18.26C9.83596 18.26 10.3826 18.1267 10.8493 17.86C11.3293 17.58 11.7026 17.1933 11.9693 16.7C12.2493 16.2067 12.3893 15.6533 12.3893 15.04V5.6H15.1093V15.18C15.1093 16.2467 14.856 17.2 14.3493 18.04C13.8426 18.88 13.1426 19.54 12.2493 20.02C11.3693 20.5 10.356 20.74 9.2093 20.74ZM17.8248 20.5V5.6H20.5448V20.5H17.8248Z"/>
</mask>
<path d="M9.2093 20.74C8.06263 20.74 7.04263 20.5 6.1493 20.02C5.2693 19.54 4.57596 18.88 4.0693 18.04C3.56263 17.2 3.3093 16.2467 3.3093 15.18V5.6H6.0293V15.04C6.0293 15.6533 6.16263 16.2067 6.4293 16.7C6.7093 17.1933 7.0893 17.58 7.5693 17.86C8.0493 18.1267 8.59596 18.26 9.2093 18.26C9.83596 18.26 10.3826 18.1267 10.8493 17.86C11.3293 17.58 11.7026 17.1933 11.9693 16.7C12.2493 16.2067 12.3893 15.6533 12.3893 15.04V5.6H15.1093V15.18C15.1093 16.2467 14.856 17.2 14.3493 18.04C13.8426 18.88 13.1426 19.54 12.2493 20.02C11.3693 20.5 10.356 20.74 9.2093 20.74ZM17.8248 20.5V5.6H20.5448V20.5H17.8248Z" fill="#B07C42"/>
<path d="M6.1493 20.02L5.67044 20.8979L5.67598 20.9009L6.1493 20.02ZM4.0693 18.04L4.92559 17.5235L4.92559 17.5235L4.0693 18.04ZM3.3093 5.6V4.6H2.3093V5.6H3.3093ZM6.0293 5.6H7.0293V4.6H6.0293V5.6ZM6.4293 16.7L5.54959 17.1755L5.55451 17.1846L5.55961 17.1936L6.4293 16.7ZM7.5693 17.86L7.06543 18.7238L7.07449 18.7291L7.08365 18.7342L7.5693 17.86ZM10.8493 17.86L11.3455 18.7283L11.3532 18.7238L10.8493 17.86ZM11.9693 16.7L11.0996 16.2064L11.0945 16.2154L11.0896 16.2245L11.9693 16.7ZM12.3893 5.6V4.6H11.3893V5.6H12.3893ZM15.1093 5.6H16.1093V4.6H15.1093V5.6ZM14.3493 18.04L15.2056 18.5565L15.2056 18.5565L14.3493 18.04ZM12.2493 20.02L11.776 19.1391L11.7704 19.1421L12.2493 20.02ZM9.2093 20.74V19.74C8.20595 19.74 7.35231 19.5312 6.62261 19.1391L6.1493 20.02L5.67598 20.9009C6.73295 21.4688 7.91931 21.74 9.2093 21.74V20.74ZM6.1493 20.02L6.62815 19.1421C5.90021 18.745 5.33862 18.2083 4.92559 17.5235L4.0693 18.04L3.21301 18.5565C3.8133 19.5517 4.63839 20.335 5.67045 20.8979L6.1493 20.02ZM4.0693 18.04L4.92559 17.5235C4.52109 16.8529 4.3093 16.0811 4.3093 15.18H3.3093H2.3093C2.3093 16.4123 2.60417 17.5471 3.21301 18.5565L4.0693 18.04ZM3.3093 15.18H4.3093V5.6H3.3093H2.3093V15.18H3.3093ZM3.3093 5.6V6.6H6.0293V5.6V4.6H3.3093V5.6ZM6.0293 5.6H5.0293V15.04H6.0293H7.0293V5.6H6.0293ZM6.0293 15.04H5.0293C5.0293 15.8035 5.19673 16.5227 5.54959 17.1755L6.4293 16.7L7.309 16.2245C7.12853 15.8906 7.0293 15.5032 7.0293 15.04H6.0293ZM6.4293 16.7L5.55961 17.1936C5.92484 17.8371 6.42966 18.3529 7.06543 18.7238L7.5693 17.86L8.07317 16.9962C7.74893 16.8071 7.49375 16.5496 7.29898 16.2064L6.4293 16.7ZM7.5693 17.86L7.08365 18.7342C7.72897 19.0927 8.44628 19.26 9.2093 19.26V18.26V17.26C8.74564 17.26 8.36962 17.1607 8.05494 16.9858L7.5693 17.86ZM9.2093 18.26V19.26C9.98086 19.26 10.7042 19.0946 11.3454 18.7282L10.8493 17.86L10.3532 16.9918C10.061 17.1587 9.69107 17.26 9.2093 17.26V18.26ZM10.8493 17.86L11.3532 18.7238C11.9932 18.3504 12.4959 17.8287 12.849 17.1755L11.9693 16.7L11.0896 16.2245C10.9094 16.5579 10.6654 16.8096 10.3454 16.9962L10.8493 17.86ZM11.9693 16.7L12.839 17.1936C13.2113 16.5377 13.3893 15.8119 13.3893 15.04H12.3893H11.3893C11.3893 15.4948 11.2873 15.8757 11.0996 16.2064L11.9693 16.7ZM12.3893 15.04H13.3893V5.6H12.3893H11.3893V15.04H12.3893ZM12.3893 5.6V6.6H15.1093V5.6V4.6H12.3893V5.6ZM15.1093 5.6H14.1093V15.18H15.1093H16.1093V5.6H15.1093ZM15.1093 15.18H14.1093C14.1093 16.0811 13.8975 16.8529 13.493 17.5235L14.3493 18.04L15.2056 18.5565C15.8144 17.5471 16.1093 16.4123 16.1093 15.18H15.1093ZM14.3493 18.04L13.493 17.5235C13.0822 18.2045 12.5169 18.741 11.776 19.1391L12.2493 20.02L12.7226 20.9009C13.7684 20.339 14.603 19.5555 15.2056 18.5565L14.3493 18.04ZM12.2493 20.02L11.7704 19.1421C11.0573 19.5311 10.213 19.74 9.2093 19.74V20.74V21.74C10.4989 21.74 11.6813 21.4689 12.7281 20.8979L12.2493 20.02ZM17.8248 20.5H16.8248V21.5H17.8248V20.5ZM17.8248 5.6V4.6H16.8248V5.6H17.8248ZM20.5448 5.6H21.5448V4.6H20.5448V5.6ZM20.5448 20.5V21.5H21.5448V20.5H20.5448ZM17.8248 20.5H18.8248V5.6H17.8248H16.8248V20.5H17.8248ZM17.8248 5.6V6.6H20.5448V5.6V4.6H17.8248V5.6ZM20.5448 5.6H19.5448V20.5H20.5448H21.5448V5.6H20.5448ZM20.5448 20.5V19.5H17.8248V20.5V21.5H20.5448V20.5Z" fill="#191919" mask="url(#path-1-outside-1_165_30)"/>
</svg>
